<?xml version="1.0" encoding="UTF-8" standalone="no"?>
<!-- Created with Inkscape (http://www.inkscape.org/) -->

<svg
   width="210mm"
   height="297mm"
   viewBox="0 0 210 297"
   version="1.1"
   id="svg5"
   xml:space="preserve"
   inkscape:version="1.2.2 (b0a84865, 2022-12-01)"
   sodipodi:docname="logo.svg"
   inkscape:export-filename="logo.png"
   inkscape:export-xdpi="150"
   inkscape:export-ydpi="150"
   xmlns:inkscape="http://www.inkscape.org/namespaces/inkscape"
   xmlns:sodipodi="http://sodipodi.sourceforge.net/DTD/sodipodi-0.dtd"
   xmlns="http://www.w3.org/2000/svg"
   xmlns:svg="http://www.w3.org/2000/svg"><sodipodi:namedview
     id="namedview7"
     pagecolor="#ffffff"
     bordercolor="#000000"
     borderopacity="0.25"
     inkscape:showpageshadow="2"
     inkscape:pageopacity="0.0"
     inkscape:pagecheckerboard="0"
     inkscape:deskcolor="#d1d1d1"
     inkscape:document-units="mm"
     showgrid="false"
     inkscape:zoom="1.6819304"
     inkscape:cx="167.06993"
     inkscape:cy="349.59829"
     inkscape:window-width="3440"
     inkscape:window-height="1294"
     inkscape:window-x="1470"
     inkscape:window-y="25"
     inkscape:window-maximized="1"
     inkscape:current-layer="layer1"
     showguides="true" /><defs
     id="defs2"><rect
       x="-317.83284"
       y="367.44167"
       width="9.2491039"
       height="16.816553"
       id="rect547" /><rect
       x="165.64304"
       y="130.32828"
       width="89.968556"
       height="413.68719"
       id="rect538" /></defs><g
     inkscape:label="Layer 1"
     inkscape:groupmode="layer"
     id="layer1"><rect
       style="fill:#000000;stroke:#000000;stroke-width:0.933049"
       id="rect310"
       width="139.75763"
       height="131.42023"
       x="47.631252"
       y="25.293325"
       ry="9.28125" /><path
       style="fill:#ffffff;stroke-width:0.142024"
       d="m 87.88807,145.13968 c 10.28475,-2.26914 15.76997,-2.08777 21.66305,-1.63018 8.71363,0.67659 23.49256,2.08328 26.50944,2.61776 0.96636,0.1712 0.71201,-0.28309 1.19337,-0.79618 0.76314,-0.81327 1.63522,-1.30017 1.00885,-2.03988 -1.74786,-2.06413 -1.915,-1.47906 -4.89486,-2.21023 -0.0243,-0.0271 0.0516,-0.65144 0.16876,-1.38751 0.25175,-1.5819 0.1788,-2.92227 -0.21262,-3.90655 -0.2827,-0.71088 -5.23681,-4.61433 -6.77167,-6.0025 l -0.84164,-0.7612 v -1.58664 c 0,-1.9528 0.19597,-5.39345 0.53798,-9.44546 0.57338,-6.79316 0.39459,-7.86857 -0.0107,-9.54284 -0.25681,-1.06084 -1.1595,-2.15111 -2.29652,-2.77374 -1.1634,-0.63708 -2.77193,-0.77456 -3.69383,-0.31571 -0.38662,0.19242 -3.46653,3.12278 -8.80806,8.42282 l -4.04305,4.01165 -0.0325,-1.55243 c -0.0179,-0.85383 -0.12391,-3.55426 -0.23566,-6.00096 1.10059,-16.458294 0.72284,-17.6227 3.42648,-30.866441 0.05,-0.06297 2.08134,2.22881 4.51418,5.092838 2.43284,2.864027 4.60951,5.325277 4.83705,5.469457 0.55064,0.34889 0.8979,0.33043 1.40916,-0.0749 0.23381,-0.18537 3.69658,-4.34764 7.69505,-9.249497 7.95275,-9.749555 7.94002,-9.736307 9.3522,-9.736307 0.95306,0 2.15801,-0.683411 3.19502,-1.812119 0.65691,-0.714997 0.79463,-0.949068 0.75937,-1.290661 -0.0374,-0.362426 -0.10848,-0.423316 -0.54068,-0.46327 -0.27368,-0.0253 -0.90119,0.09266 -1.39446,0.262131 -1.69538,0.582475 -2.17304,0.376067 -2.03918,-0.881167 0.0999,-0.9382 0.56379,-1.956254 1.73932,-3.81709 0.51643,-0.817487 0.96772,-1.569711 1.00287,-1.67161 0.10654,-0.308806 -0.3458,-1.106101 -0.80374,-1.41669 -0.63312,-0.429404 -1.42005,-0.383318 -2.0218,0.118406 -0.54278,0.452552 -1.45432,1.736013 -1.85786,2.615884 -0.51308,1.118701 -1.43544,3.662021 -1.72671,4.761241 -0.6377,2.406664 -0.77301,2.579073 -7.58217,9.661413 -3.40587,3.542519 -6.23834,6.460441 -6.29436,6.484272 -0.15669,0.06665 -8.02229,-12.21909 -8.49124,-13.262971 -0.33336,-0.742053 -0.80741,-1.335662 -2.44566,-3.062461 -1.99186,-2.099527 -2.39739,-2.692474 -2.39739,-3.505349 0,-1.367976 1.08692,-2.276257 2.89041,-4.080127 1.0099,-1.010113 1.95771,-1.505433 3.00323,-2.610344 0.1621,-0.171313 2.68676,-2.244162 2.93445,-3.20018 0.2649,-1.022466 -0.41621,-2.005185 -0.84125,-3.156544 -0.55493,-1.503213 -1.29006,-2.878966 -1.84003,-4.019327 -1.18392,-2.396001 -1.45222,-3.517552 -3.67435,-5.919126 -2.3466,-2.536101 -4.6095,-3.99579 -7.11645,-4.590492 -0.69956,-0.16595 -1.41681,-0.202411 -2.76278,-0.140443 -2.03987,0.09392 -3.13587,0.326869 -4.70533,1.000108 -3.70922,1.591121 -6.87547,5.890451 -7.5605,10.266115 -0.23241,1.484509 -0.0887,3.76937 0.33728,5.360779 0.44602,1.666436 0.87655,2.63439 2.33162,5.242179 l 1.15845,2.076176 -0.23583,0.487109 c -0.68156,1.407755 -2.14846,2.772047 -4.36238,4.05723 -1.59592,0.926433 -2.719,2.04193 -3.20039,3.178778 -0.1995,0.471144 -1.83318,4.193183 -3.63041,8.271198 -3.32957,7.55499 -5.03743,11.952179 -6.38325,16.434776 -0.75549,2.51634 -0.82309,3.21945 -0.42233,4.39265 1.41042,1.897462 2.02542,1.276704 3.60442,1.767105 l 6.5947,-0.06137 5.61466,-0.173754 0.23079,3.617985 c 0.15585,2.44303 0.194,9.24019 0.28295,27.41671 l 0.0439,8.98156 -2.23596,1.81589 c -2.23159,1.81233 -2.23828,1.81639 -3.42995,2.07964 -2.48406,0.39919 -3.96435,2.43916 -1.70171,3.56128 2.31507,1.14813 3.15198,0.14639 5.50028,-0.51089 z m 36.94712,-5.50656 c -13.6233,-2.39684 -21.98087,-2.62891 -29.33838,-0.81469 -0.90166,0.22233 -1.6684,0.37195 -1.70389,0.33248 -0.14336,-0.15947 -0.24345,-22.14074 -0.10082,-22.14074 0.16417,0 7.42008,2.93642 9.73878,3.94122 2.57046,1.1139 4.65151,2.18726 10.09275,5.20563 8.53977,4.73718 10.36676,5.97986 14.85067,10.10108 1.46514,1.34664 1.44292,1.28514 1.15798,3.20436 l -0.15073,1.01522 -1.02756,-0.20313 c -0.56516,-0.11172 -2.14862,-0.40037 -3.5188,-0.64143 z m -8.23989,-16.70022 -5.34468,-3.0102 2.8488,-2.84182 c 1.56684,-1.56299 0.49752,-0.53938 2.72199,-2.75558 2.22446,-2.2162 4.23991,-4.2331 4.47876,-4.48199 0.39115,-0.40759 0.46953,-0.43467 0.78921,-0.27265 l 0.35492,0.17988 c 0.15715,3.11161 0.0958,5.85257 -0.0305,7.53682 -0.18276,2.38962 -0.49599,5.88084 -0.54628,6.80766 -0.0503,0.92683 -0.11449,1.68513 -0.14267,1.68513 -5.0628,-2.88745 2.85245,1.57201 -5.1296,-2.84725 z m -18.29495,-8.7591 -4.78702,-1.98181 -0.16797,-8.56298 c -0.0924,-4.709636 -0.0444,-3.94462 -0.0856,-5.22157 0,0 -0.10003,5.93858 -0.0213,0.196788 l 2.00468,0.235016 c 2.14108,0.251007 0.58984,0.08873 1.95499,0.199415 0.84362,0.0684 1.19294,0.402961 2.81659,-0.14034 0.89257,-0.298671 1.69808,-0.571846 1.69808,-0.923202 0,-0.100507 -0.002,-0.785972 -0.10718,-0.945454 -0.1585,-0.241114 -1.36327,-0.388369 -2.48447,-0.462288 -1.66128,-0.109525 -1.16956,-0.274589 -1.04031,-1.004034 0.15388,-0.868454 0.62972,-0.828314 2.45843,-1.079878 2.57386,-0.35407 2.70453,-0.541043 2.70453,-1.178668 0,-1.662191 -0.7543,-1.38451 -2.56011,-1.509614 -1.35862,-0.09412 -4.15945,-0.348933 -4.71609,0.550618 -1.35786,2.19435 -2.448817,2.158786 -2.950417,2.158786 -0.11331,0 -0.363733,-8.077318 -0.424773,-8.688042 C 92.08892,80.779196 90.69387,74.471158 89.1066,70.054718 l -0.59091,-1.644179 1.09437,-0.682397 c 2.52977,-1.577435 4.22193,-3.196138 5.29895,-5.068933 0.26218,-0.455907 0.80499,-1.633236 1.20623,-2.616288 0.46319,-1.134814 0.44191,-1.726424 0.69402,-2.670286 0.382,-1.430152 0.47288,-1.434914 0.30414,-4.17087 -0.4396,-2.557886 -0.0326,-4.213347 0.90818,-5.448305 1.10265,-1.447502 4.0932,-2.10396 7.14408,-2.807565 1.25285,-0.288937 1.32316,-0.289868 2.55546,-0.03388 1.43886,0.298904 1.46203,0.547407 2.17567,1.772056 0.40739,0.699093 1.46081,2.216161 1.95657,3.147504 0.56304,1.057734 0.82112,1.557329 1.32787,3.101776 -1.02181,0.708718 -3.48165,2.150906 -4.82679,3.321641 -1.54561,1.345219 -3.32676,3.450101 -3.75548,4.438069 -0.8044,1.853714 -0.78994,3.871889 0.0412,5.749853 0.415,0.937683 1.06338,1.733839 3.05941,3.756666 0.38883,0.394055 0.70697,0.819707 0.70697,0.945891 0,0.126184 -0.64046,2.728912 -1.42325,5.783841 -1.87927,7.334047 -2.32995,8.5724 -2.48864,10.553079 -0.87312,10.897842 -0.48028,3.709983 -1.34926,22.262909 0.29633,5.21997 0.32262,6.56644 0.1266,6.48597 -0.1015,-0.0417 -2.3387,-0.96756 -4.97156,-2.05756 z m 8.93678,-62.838077 c 0.68797,-0.272925 1.0129,-0.624792 1.11031,-1.202332 0.0872,-0.516883 -0.19179,-1.435669 -0.58572,-1.929137 -0.60013,-0.751763 -2.0748,-1.070528 -2.86083,-0.618396 -0.74531,0.428715 -1.15961,2.007652 -0.75509,2.877774 0.42976,0.924428 1.90811,1.341485 3.09133,0.872091 z M 80.43021,88.18177 c 1.37734,-2.682101 3.27253,-6.108818 5.05647,-9.142685 1.61548,-2.747364 1.40825,-2.753432 2.03919,0.05971 0.51374,2.290625 0.76682,3.766447 1.00436,5.856972 0.32112,2.826027 0.613251,9.132652 0.446381,9.247368 -0.20772,0.142803 -8.81568,-0.394642 -10.43624,-0.697488 0.29657,-1.208775 1.118639,-3.818271 1.889839,-5.323877 z M 92.06775,53.194654 c -0.26225,-1.052698 -0.48317,-1.588717 -0.64986,-2.16538 -0.78345,-2.710225 0.0417,-5.797333 2.18221,-8.164376 1.90576,-2.107449 3.78669,-2.994305 6.59205,-3.108153 1.29652,-0.05262 1.88191,-0.01074 2.5478,0.182292 0.83501,0.242045 2.09212,0.873823 2.6259,1.31968 0.23982,0.200311 2.42125,1.609905 1.80674,1.711415 -1.05792,0.174758 -3.63577,0.377896 -5.03137,0.933502 -2.58385,1.028667 -5.28801,1.745422 -6.02,3.46782 -0.41003,0.964831 -0.98783,2.291262 -1.00343,3.692081 -0.0151,1.354444 0.4635,3.22362 -0.12998,3.804036 -0.34274,0.335188 -1.85378,0.429049 -2.01459,0.377987 -0.0724,-0.023 -0.70002,-1.226206 -0.90547,-2.050904 z"
       id="path302"
       sodipodi:nodetypes="csscscssscssssssccccssssssssssssssssssssssssscssssscscsssssccccsccscscccsssssscsccsssssccscccscccsssscssssssssscsssscssssscssssssscsccscsssscscssccscssssssssssscs" /><text
       xml:space="preserve"
       transform="matrix(1.6742152,0,0,1.0818734,-203.99996,-107.14913)"
       id="text536"
       style="line-height:0.85;font-family:sans-serif;-inkscape-font-specification:sans-serif;white-space:pre;shape-inside:url(#rect538);display:inline;fill:#ffffff;stroke:#de8787;stroke-width:3.77953"
       x="3.9359989"
       y="0"><tspan
         x="206.62495"
         y="139.14089"
         id="tspan520"><tspan
           style="font-weight:bold;font-family:Herculanum;-inkscape-font-specification:Herculanum;text-align:center;text-anchor:middle;stroke:none"
           id="tspan518">A
</tspan></tspan><tspan
         x="207.29095"
         y="149.60569"
         id="tspan524"><tspan
           style="font-weight:bold;font-family:Herculanum;-inkscape-font-specification:Herculanum;text-align:center;text-anchor:middle;stroke:none"
           id="tspan522">R
</tspan></tspan><tspan
         x="207.62696"
         y="160.07049"
         id="tspan528"><tspan
           style="font-weight:bold;font-family:Herculanum;-inkscape-font-specification:Herculanum;text-align:center;text-anchor:middle;stroke:none"
           id="tspan526">T
</tspan></tspan><tspan
         x="208.62896"
         y="170.53529"
         id="tspan532"><tspan
           style="font-weight:bold;font-family:Herculanum;-inkscape-font-specification:Herculanum;text-align:center;text-anchor:middle;stroke:none"
           id="tspan530">I
</tspan></tspan><tspan
         x="207.40496"
         y="181.00008"
         id="tspan536"><tspan
           style="font-weight:bold;font-family:Herculanum;-inkscape-font-specification:Herculanum;text-align:center;text-anchor:middle;stroke:none"
           id="tspan534">F
</tspan></tspan><tspan
         x="206.62495"
         y="191.46488"
         id="tspan540"><tspan
           style="font-weight:bold;font-family:Herculanum;-inkscape-font-specification:Herculanum;text-align:center;text-anchor:middle;stroke:none"
           id="tspan538">A
</tspan></tspan><tspan
         x="207.06896"
         y="201.92968"
         id="tspan544"><tspan
           style="font-weight:bold;font-family:Herculanum;-inkscape-font-specification:Herculanum;text-align:center;text-anchor:middle;stroke:none"
           id="tspan542">C
</tspan></tspan><tspan
         x="207.62696"
         y="212.39448"
         id="tspan548"><tspan
           style="font-weight:bold;font-family:Herculanum;-inkscape-font-specification:Herculanum;text-align:center;text-anchor:middle;stroke:none"
           id="tspan546">T
</tspan></tspan><tspan
         x="206.73896"
         y="222.85927"
         id="tspan552"><tspan
           style="font-weight:bold;font-family:Herculanum;-inkscape-font-specification:Herculanum;text-align:center;text-anchor:middle;stroke:none"
           id="tspan550">D
</tspan></tspan><tspan
         x="207.40496"
         y="233.32407"
         id="tspan556"><tspan
           style="font-weight:bold;font-family:Herculanum;-inkscape-font-specification:Herculanum;text-align:center;text-anchor:middle;stroke:none"
           id="tspan554">B</tspan></tspan></text><text
       xml:space="preserve"
       transform="scale(0.26458333)"
       id="text545"
       style="font-family:sans-serif;-inkscape-font-specification:sans-serif;white-space:pre;shape-inside:url(#rect547);display:inline;fill:#000000;stroke:none;stroke-width:3.77953" /></g></svg>
